# xmcd
#
# Track frame offsets: 
#        150
#        24767
#        46277
#        70207
#        93721
#        120190
#        137325
#        168542
#        190211
#        218085
#
# Disc length: 3226 seconds
#
# Revision: 0
# Processed by: cddbd v1.5.2PL0 Copyright (c) Steve Scherf et al.
# Submitted via: ExactAudioCopyFreeDBPlugin 1.0
#
DISCID=7f0c980a
DTITLE=Shakatak - Out Of This World
DYEAR=1983
DGENRE=Jazz+Funk
TTITLE0=Dark Is The Night
TTITLE1=Don't Say That Again
TTITLE2=Slip Away
TTITLE3=On Nights Like Tonight
TTITLE4=Out Of This World
TTITLE5=Let's Get Together
TTITLE6=If You Could See Me Now
TTITLE7=Sanur
TTITLE8=Dark Is The Night (Extended Version)
TTITLE9=I Lose Myself (Re-Mix)
EXTD=
EXTT0=
EXTT1=
EXTT2=
EXTT3=
EXTT4=
EXTT5=
EXTT6=
EXTT7=
EXTT8=
EXTT9=
PLAYORDER=
